# xmcd
#
# Track frame offsets: 
#        150
#        11481
#        27771
#        89850
#        140885
#
# Disc length: 2915 seconds
#
# Revision: 0
# Processed by: cddbd v1.5.1PL0 Copyright (c) Steve Scherf et al.
# Submitted via: ExactAudioCopy v0.95a5
#
DISCID=400b6105
DTITLE=Willie Nelson and Merle Haggard - La Zona Rosa--disc 2
DYEAR=1997
DGENRE=Country
TTITLE0=On the Road Again
TTITLE1=Why Do I Have to Choose
TTITLE2=Please Don't Talk About Me When I'm Gone--Whiskey River--Silve
TTITLE2=r Wings
TTITLE3=Stardust--Angel Flying Too Close to the Ground--I've Got No Re
TTITLE3=ason to Quit
TTITLE4=I Gotta Get Drunk--I'm the Man With the Blues--Medley--I've Go
TTITLE4=t the Money if You Got the Time--Jango
EXTD=
EXTT0=
EXTT1=
EXTT2=
EXTT3=
EXTT4=
PLAYORDER=
